<svg xmlns="http://www.w3.org/2000/svg" viewBox="0 0 512 512">
  <rect width="512" height="512" rx="128" fill="#7000e0"/>
  <path fill="white" d="M144 96h224c26.5 0 48 21.5 48 48v224c0 26.5-21.5 48-48 48H144c-26.5 0-48-21.5-48-48V144c0-26.5 21.5-48 48-48zm48 80c0 8.8 7.2 16 16 16h96c8.8 0 16-7.2 16-16s-7.2-16-16-16h-96c-8.8 0-16 7.2-16 16zm-16 80c0 8.8 7.2 16 16 16h32c8.8 0 16-7.2 16-16s-7.2-16-16-16h-32c-8.8 0-16 7.2-16 16zm80 0c0 8.8 7.2 16 16 16h32c8.8 0 16-7.2 16-16s-7.2-16-16-16h-32c-8.8 0-16 7.2-16 16zm80 0c0 8.8 7.2 16 16 16h32c8.8 0 16-7.2 16-16s-7.2-16-16-16h-32c-8.8 0-16 7.2-16 16zm-160 80c0 8.8 7.2 16 16 16h32c8.8 0 16-7.2 16-16s-7.2-16-16-16h-32c-8.8 0-16 7.2-16 16zm80 0c0 8.8 7.2 16 16 16h32c8.8 0 16-7.2 16-16s-7.2-16-16-16h-32c-8.8 0-16 7.2-16 16zm80 0c0 8.8 7.2 16 16 16v64c0 8.8 7.2 16 16 16s16-7.2 16-16v-64c0-8.8-7.2-16-16-16z"/>
</svg>
